<svg width="24" height="24" viewBox="0 0 24 24" fill="none" xmlns="http://www.w3.org/2000/svg">
<path d="M10.0694 0.693751C10.9847 -0.231251 12.479 -0.23125 13.3942 0.693753L14.3769 1.6868C14.8692 2.18435 15.5585 2.43523 16.2554 2.37054L17.6465 2.24143C18.9422 2.12117 20.0869 3.08169 20.1934 4.37861L20.3078 5.77094C20.3652 6.46854 20.7319 7.10379 21.3074 7.50223L22.456 8.29747C23.5259 9.03822 23.7854 10.5098 23.0334 11.5718L22.226 12.7119C21.8215 13.2832 21.6941 14.0056 21.8789 14.6807L22.2476 16.0282C22.591 17.2833 21.8439 18.5774 20.5852 18.9076L19.2338 19.262C18.5568 19.4396 17.9949 19.9111 17.7024 20.547L17.1187 21.8163C16.575 22.9985 15.1708 23.5096 13.9944 22.9534L12.7314 22.3564C12.0986 22.0572 11.3651 22.0572 10.7322 22.3564L9.46926 22.9534C8.29281 23.5096 6.88863 22.9985 6.34492 21.8163L5.76121 20.547C5.46875 19.9111 4.90684 19.4396 4.22979 19.262L2.87847 18.9076C1.61976 18.5774 0.872613 17.2833 1.21605 16.0282L1.58475 14.6807C1.76948 14.0056 1.64211 13.2832 1.23761 12.7119L0.430271 11.5718C-0.321743 10.5098 -0.0622588 9.03822 1.00763 8.29747L2.15622 7.50223C2.7317 7.10379 3.09846 6.46854 3.15578 5.77094L3.27018 4.37861C3.37675 3.08168 4.52145 2.12117 5.81717 2.24143L7.20821 2.37054C7.90517 2.43523 8.59446 2.18435 9.08678 1.6868L10.0694 0.693751Z" fill="url(#paint0_linear_10_293)"/>
<defs>
<linearGradient id="paint0_linear_10_293" x1="11.7318" y1="0" x2="11.7318" y2="23.1784" gradientUnits="userSpaceOnUse">
<stop stop-color="#63ED67"/>
<stop offset="1" stop-color="#30C935"/>
</linearGradient>
</defs>
</svg>
